<?xml version="1.0" encoding="iso-8859-1"?>
<!-- Generator: Adobe Illustrator 19.0.0, SVG Export Plug-In . SVG Version: 6.00 Build 0)  -->
<svg xmlns="http://www.w3.org/2000/svg" xmlns:xlink="http://www.w3.org/1999/xlink" version="1.1" id="Layer_1" x="0px" y="0px" viewBox="0 0 512.001 512.001" style="enable-background:new 0 0 512.001 512.001;" xml:space="preserve" width="512px" height="512px">
<g>
	<g>
		<path d="M507.974,318.229c-4.817-4.103-12.051-3.529-16.158,1.287l-28.954,33.966V172.8c0-29.018-23.608-52.627-52.627-52.627    H149.593c-6.33,0-11.462,5.132-11.462,11.461s5.131,11.461,11.462,11.461h260.642c16.378,0,29.704,13.325,29.704,29.704v180.692    l-28.962-33.975c-4.107-4.816-11.341-5.394-16.158-1.287c-4.817,4.107-5.394,11.341-1.287,16.158l43.19,50.666    c3.67,4.305,9.019,6.774,14.675,6.774c5.656,0,11.005-2.47,14.674-6.774l43.19-50.666    C513.367,329.569,512.792,322.336,507.974,318.229z" fill="#d3a71c"/>
	</g>
</g>
<g>
	<g>
		<path d="M362.408,368.903H101.764c-16.378,0-29.704-13.325-29.704-29.704V158.509l28.962,33.975    c4.107,4.817,11.34,5.394,16.158,1.287c4.817-4.107,5.394-11.341,1.287-16.158l-43.189-50.666    c-3.67-4.305-9.019-6.774-14.675-6.774s-11.005,2.47-14.674,6.774l-43.19,50.666c-4.107,4.817-3.53,12.052,1.287,16.158    c2.158,1.838,4.8,2.739,7.429,2.739c3.24,0,6.461-1.366,8.728-4.026l28.954-33.966v180.683c0,29.018,23.608,52.627,52.627,52.627    h260.643c6.33,0,11.461-5.132,11.461-11.461S368.737,368.903,362.408,368.903z" fill="#d3a71c"/>
	</g>
</g>
<g>
</g>
<g>
</g>
<g>
</g>
<g>
</g>
<g>
</g>
<g>
</g>
<g>
</g>
<g>
</g>
<g>
</g>
<g>
</g>
<g>
</g>
<g>
</g>
<g>
</g>
<g>
</g>
<g>
</g>
</svg>
