<?xml version="1.0" encoding="iso-8859-1"?>
<!-- Generator: Adobe Illustrator 19.0.0, SVG Export Plug-In . SVG Version: 6.00 Build 0)  -->
<svg version="1.1" id="Layer_1" xmlns="http://www.w3.org/2000/svg" xmlns:xlink="http://www.w3.org/1999/xlink" x="0px" y="0px"
	 viewBox="0 0 511.943 511.943" style="enable-background:new 0 0 511.943 511.943;" xml:space="preserve">
<g>
	<path style="fill:#7F6E5D;" d="M381.726,134.68H130.217c0,0-98.807,89.079-98.807,260.491v17.812
		c0,31.241,18.288,59.814,46.996,72.156c32.624,14.031,87.157,26.804,177.565,26.804s144.941-12.773,177.565-26.804
		c28.708-12.342,46.996-40.915,46.996-72.156v-17.812C480.533,223.759,381.726,134.68,381.726,134.68"/>
	<g>
		<path style="fill:#FFFFFF;" d="M193.094,296.364c-2.021,0-4.042-0.674-5.722-2.057c-3.827-3.162-4.356-8.821-1.204-12.647
			c0.341-0.413,33.873-41.418,33.873-75.12c0.036-2.165,1.132-49.772,29.579-78.21c3.512-3.512,9.189-3.512,12.701,0
			c3.512,3.512,3.512,9.189,0,12.701c-23.354,23.363-24.316,65.24-24.316,65.662c0,40.044-36.442,84.543-37.987,86.42
			C198.241,295.25,195.672,296.364,193.094,296.364"/>
		<path style="fill:#FFFFFF;" d="M309.857,260.434c-0.79,0-1.599-0.108-2.398-0.332c-1.365-0.377-33.523-9.809-33.523-53.562
			c-0.009-0.26-1.078-42.262-24.316-65.509c-3.512-3.512-3.512-9.189,0-12.701c3.512-3.512,9.189-3.512,12.701,0
			c28.447,28.438,29.543,76.045,29.579,78.058c0,29.849,19.636,36.181,20.471,36.442c4.707,1.437,7.437,6.396,6.063,11.12
			C317.295,257.865,313.747,260.434,309.857,260.434"/>
	</g>
	<path style="fill:#F0C419;" d="M300.884,404.154c0,24.801-20.112,44.912-44.912,44.912s-44.912-20.112-44.912-44.912
		c0-24.801,20.112-44.912,44.912-44.912S300.884,379.353,300.884,404.154"/>
	<g>
		<path style="fill:#D3A71C;" d="M318.849,323.312c-23.121,0-41.939,17.534-44.418,39.99c15.576,7.051,26.453,22.645,26.453,40.852
			c0,1.689-0.314,3.288-0.494,4.922c5.641,2.56,11.857,4.06,18.459,4.06c24.801,0,44.912-20.112,44.912-44.912
			C363.761,343.423,343.649,323.312,318.849,323.312"/>
		<path style="fill:#D3A71C;" d="M211.059,404.154c0-19.151,12.045-35.391,28.923-41.849c-7.949-12.593-21.908-21.028-37.906-21.028
			c-24.801,0-44.912,20.112-44.912,44.912c0,24.801,20.112,44.912,44.912,44.912c5.65,0,11.004-1.159,15.989-3.063
			C213.691,421.104,211.059,412.956,211.059,404.154"/>
	</g>
	<path style="fill:#7F6E5D;" d="M426.389,29.889c-2.21-25.573-32.4-38.687-52.952-23.3c-12.935,9.692-32.22,20.3-54.586,20.3
		c-17.201,0-30.289-4.931-39.954-11.147c-14.013-9.018-31.834-9.018-45.846,0c-9.665,6.216-22.753,11.147-39.954,11.147
		c-22.375,0-41.652-10.608-54.595-20.3c-20.543-15.387-50.742-2.273-52.943,23.3c-0.036,0.404-0.072,0.808-0.099,1.222
		c-0.207,3.072,0.817,6.126,2.605,8.632l42.155,59.006h125.754h125.754l42.146-59.006c1.796-2.506,2.811-5.56,2.605-8.632
		C426.451,30.697,426.424,30.293,426.389,29.889"/>
	<path style="fill:#B29A84;" d="M390.708,134.68H121.235c-9.881,0-17.965-8.084-17.965-17.965s8.084-17.965,17.965-17.965h269.474
		c9.881,0,17.965,8.084,17.965,17.965S400.589,134.68,390.708,134.68"/>
</g>
<g>
</g>
<g>
</g>
<g>
</g>
<g>
</g>
<g>
</g>
<g>
</g>
<g>
</g>
<g>
</g>
<g>
</g>
<g>
</g>
<g>
</g>
<g>
</g>
<g>
</g>
<g>
</g>
<g>
</g>
</svg>
