<?xml version="1.0" encoding="iso-8859-1"?>
<!-- Generator: Adobe Illustrator 19.0.0, SVG Export Plug-In . SVG Version: 6.00 Build 0)  -->
<svg xmlns="http://www.w3.org/2000/svg" xmlns:xlink="http://www.w3.org/1999/xlink" version="1.1" id="Layer_1" x="0px" y="0px" viewBox="0 0 512.125 512.125" style="enable-background:new 0 0 512.125 512.125;" xml:space="preserve" width="512px" height="512px">
<g transform="translate(1 1)">
	<g>
		<g>
			<path d="M395.242,144.765c9.549-3.798,16.024-12.975,16.024-24.148c0-12.183-7.697-21.991-18.685-25.041l31.702-44.383     c2.603-4.339,4.339-8.678,4.339-13.885v-1.736c-0.868-14.753-9.546-26.902-23.431-32.976     c-13.885-6.075-29.505-4.339-41.654,4.339c-11.281,8.678-27.769,18.224-47.729,18.224c-13.017,0-24.298-3.471-33.844-9.546     c-16.488-10.414-37.315-10.414-53.803,0c-9.546,6.075-20.827,9.546-33.844,9.546c-19.959,0-36.447-9.546-47.729-18.224     c-12.149-8.678-27.77-10.414-41.654-4.339C91.917,9.539,82.371,21.688,81.503,36.44v0.868c0,5.207,1.736,9.546,4.339,13.885     l31.702,44.383c-10.988,3.05-18.685,12.858-18.685,25.041c0,11.061,6.342,20.171,15.735,24.037     c-26.681,30.631-85.159,112.414-85.159,244.112v17.356c0,34.712,19.959,65.085,50.332,78.102     c41.654,18.224,100.664,26.902,175.295,26.902s133.641-8.678,175.295-26.034c30.373-13.885,50.332-44.258,50.332-78.102v-17.356     C480.69,257.457,421.788,175.56,395.242,144.765z M98.859,38.176v-0.868c0.868-7.81,6.075-14.753,13.885-19.091     c7.81-3.471,16.488-2.603,23.431,2.603c13.017,10.414,33.844,21.695,58.142,21.695c16.488,0,30.373-4.339,43.39-12.149     c10.414-6.942,24.298-6.942,34.712,0c13.017,7.81,26.902,12.149,43.39,12.149c24.298,0,45.125-11.281,58.142-21.695     c6.942-5.207,15.62-6.075,23.431-2.603c7.81,3.471,13.017,10.414,13.885,19.091v0.868c0,0.868,0,1.736-0.868,2.603     l-38.183,53.803H137.91L99.727,40.779C98.859,39.912,98.859,39.044,98.859,38.176z M124.893,111.939h4.339h251.661h4.339     c5.207,0,8.678,3.471,8.678,8.678s-3.471,8.678-8.678,8.678h-4.339l-0.868-0.868H130.1l-0.868,0.868h-4.339     c-5.207,0-8.678-3.471-8.678-8.678S119.686,111.939,124.893,111.939z M463.334,406.989c0,26.902-15.62,51.2-39.919,61.614     c-39.051,16.488-95.458,25.166-168.353,25.166s-129.302-8.678-168.353-25.166c-24.298-10.414-39.919-34.712-39.919-61.614     v-17.356c0-144.922,76.366-228.231,90.251-242.983h101.276c-16.488,26.828-17.1,59.293-17.1,60.746     c0,32.976-32.976,72.895-32.976,72.895c-3.471,3.471-2.603,8.678,0.868,12.149c0.868,0.868,3.471,1.736,5.207,1.736     c2.603,0,5.207-0.868,6.942-3.471c0.868-1.736,36.447-44.258,36.447-83.308c0,0,0.699-32.702,17.668-55.74     c16.346,23.038,17.044,55.74,17.044,55.74c0,42.522,30.373,52.068,32.108,52.068c0.868,0,1.736,0,2.603,0     c3.471,0,6.942-2.603,8.678-6.075c0.868-4.339-1.736-8.678-6.075-10.414c-0.868-0.868-19.959-6.942-19.959-35.58     c0-1.453-0.612-33.918-17.1-60.746h100.408c13.885,14.753,90.251,98.061,90.251,242.983V406.989z" fill="#d3a71c"/>
			<path d="M315.808,312.4c-22.307,0-42.052,14.659-48.89,35.231c-3.813-0.897-7.779-1.387-11.856-1.387     c-4.039,0-7.969,0.481-11.749,1.362c-9.8-12.092-24.396-18.718-40.318-18.718c-28.637,0-52.068,23.431-52.068,52.068     s23.431,52.068,52.068,52.068c3.922,0,7.845-0.367,12.001-1.557c9.571,11.535,23.998,18.913,40.067,18.913     c23.033,0,42.687-15.162,49.501-35.995c3.82,0.811,7.648,1.284,11.244,1.284c28.637,0,52.068-22.563,52.068-51.2     S344.446,312.4,315.808,312.4z M205.598,415.667c-19.959,1.736-37.315-14.753-37.315-34.712c0-19.092,15.62-34.712,34.712-34.712     c8.67,0,16.474,3.465,23.412,8.664c-0.866,0.575-1.717,1.169-2.546,1.793c-0.617,0.455-1.207,0.936-1.8,1.416     c-0.025,0.02-0.051,0.04-0.076,0.06c-7.237,5.889-12.631,13.595-15.782,22.189c-0.049,0.132-0.093,0.266-0.14,0.398     c-0.276,0.772-0.542,1.548-0.781,2.334c-0.229,0.745-0.447,1.495-0.643,2.254c-0.09,0.352-0.164,0.708-0.247,1.062     c-0.147,0.622-0.289,1.246-0.413,1.876c-0.069,0.351-0.128,0.704-0.19,1.057c-0.113,0.644-0.215,1.292-0.304,1.944     c-0.047,0.342-0.092,0.684-0.131,1.027c-0.081,0.695-0.144,1.395-0.196,2.097c-0.022,0.299-0.051,0.596-0.069,0.895     c-0.057,0.994-0.094,1.993-0.094,3C202.995,404.386,203.863,410.461,205.598,415.667z M255.063,433.023     c-11.1,0-21.019-5.286-27.384-13.459l-2.074-2.962c-0.034-0.054-0.07-0.107-0.103-0.161c-0.094-0.142-0.174-0.297-0.266-0.441     c-1.36-2.278-2.469-4.721-3.283-7.294c-0.02-0.066-0.042-0.132-0.062-0.199c-0.125-0.404-0.239-0.814-0.35-1.224     c-0.37-1.416-0.666-2.849-0.861-4.273c-0.003-0.019-0.005-0.038-0.007-0.056c-0.097-0.718-0.168-1.432-0.221-2.14     c-0.007-0.103-0.017-0.206-0.024-0.31c-0.049-0.74-0.077-1.473-0.077-2.193c0-0.773,0.037-1.534,0.085-2.292     c0.021-0.312,0.043-0.623,0.071-0.932c0.031-0.35,0.076-0.694,0.117-1.041c0.732-5.907,2.961-11.363,6.296-15.979     c3.43-4.635,8.12-8.514,13.899-11.382c4.353-1.976,9.173-3.086,14.243-3.086c3.162,0,6.225,0.437,9.141,1.238l3.876,3.101     c13.017,5.207,20.827,17.356,20.827,31.241c0,0,0,0.868,0,1.736l-0.868,7.81l0.111,0.048     C283.685,422.793,270.512,433.023,255.063,433.023z M315.808,398.312c-2.603,0-6.075,0-8.678-0.868     c0-18.224-9.546-33.844-24.298-43.39c3.471-14.753,17.356-25.166,32.976-25.166c19.091,0,34.712,15.62,34.712,34.712     C350.52,382.691,334.9,398.312,315.808,398.312z" fill="#d3a71c"/>
		</g>
	</g>
</g>
<g>
</g>
<g>
</g>
<g>
</g>
<g>
</g>
<g>
</g>
<g>
</g>
<g>
</g>
<g>
</g>
<g>
</g>
<g>
</g>
<g>
</g>
<g>
</g>
<g>
</g>
<g>
</g>
<g>
</g>
</svg>
